<svg width="24" height="24" viewBox="0 0 24 24" fill="none" xmlns="http://www.w3.org/2000/svg">
<path fill-rule="evenodd" clip-rule="evenodd" d="M10.984 7.29818C10.984 6.95381 10.8426 6.62361 10.5933 6.38012C10.344 6.13676 10.0053 6 9.65331 6C9.29998 6 8.9613 6.13676 8.71197 6.38012L3.38934 11.5744C3.14001 11.8175 3 12.1477 3 12.4922C3 12.8367 3.14001 13.1669 3.38934 13.41L8.71197 18.6035C8.83463 18.727 8.98131 18.8271 9.14397 18.8947C9.30664 18.9623 9.4813 18.9987 9.6573 19C9.83463 19.0013 10.0093 18.9688 10.1733 18.9038C10.3373 18.8375 10.4853 18.7413 10.6106 18.6191C10.7346 18.4982 10.8346 18.3526 10.9013 18.1927C10.968 18.0341 11.0013 17.8625 11 17.6909C10.9986 17.518 10.9613 17.3477 10.892 17.1891C10.8226 17.0305 10.7213 16.8875 10.5933 16.7679L7.75705 14H19C19.5523 14 20 13.5523 20 13V12C20 11.4477 19.5523 11 19 11H7.74089L10.5933 8.2161C10.8426 7.97261 10.984 7.64242 10.984 7.29818Z" fill="#4B636F"/>
</svg>
