<svg width="24" height="24" viewBox="0 0 24 24" fill="none" xmlns="http://www.w3.org/2000/svg">
<path d="M11.1528 15.6363C11.1528 16.8735 10.7234 17.9101 9.86493 18.7461C9.00641 19.582 7.93319 20 6.64534 20C5.3882 20 4.29969 19.5319 3.37981 18.5956C2.45994 17.6259 2 16.2382 2 14.4326C2 13.3626 2.19931 12.2926 2.59792 11.2226C2.99653 10.1526 3.50247 9.14945 4.11572 8.21315C4.75963 7.27691 5.44953 6.44096 6.1854 5.70533C6.92133 4.9697 7.62658 4.40126 8.30115 4L10.6008 6.45768C10.2329 6.62487 9.84959 6.87566 9.45101 7.21003C9.05236 7.54441 8.68439 7.92894 8.34711 8.36363C8.00982 8.76491 7.7339 9.23302 7.51927 9.76805C7.30464 10.2696 7.19732 10.7712 7.19732 11.2727C8.33183 11.4399 9.26699 11.908 10.0029 12.6771C10.7695 13.4127 11.1528 14.3991 11.1528 15.6363ZM22 15.6363C22 16.8735 21.5707 17.9101 20.7122 18.7461C19.8536 19.582 18.7804 20 17.4926 20C16.2355 20 15.147 19.5319 14.2271 18.5956C13.3072 17.6259 12.8473 16.2382 12.8473 14.4326C12.8473 13.3626 13.0466 12.2926 13.4452 11.2226C13.8438 10.1526 14.3497 9.14945 14.963 8.21315C15.6068 7.27691 16.2968 6.44096 17.0327 5.70533C17.7686 4.9697 18.4738 4.40126 19.1484 4L21.4481 6.45768C21.0801 6.62487 20.6968 6.87566 20.2982 7.21003C19.8997 7.54441 19.5317 7.92894 19.1944 8.36363C18.8571 8.76491 18.5811 9.23302 18.3665 9.76805C18.1519 10.2696 18.0445 10.7712 18.0445 11.2727C19.1791 11.4399 20.1143 11.908 20.8501 12.6771C21.6167 13.4127 22 14.3991 22 15.6363Z" fill="#4B636F"/>
</svg>
