<svg width="24" height="24" viewBox="0 0 24 24" fill="none" xmlns="http://www.w3.org/2000/svg">
<path d="M16.4849 17.4842C16.22 17.4842 15.966 17.3783 15.7786 17.1912L12.2411 13.6537L8.70389 17.1909C8.51702 17.3781 8.26299 17.4833 7.99791 17.4832C7.73404 17.4833 7.47992 17.378 7.29304 17.191C7.106 17.0038 7 16.7496 7 16.4848C7 16.22 7.10591 15.966 7.29296 15.7786L10.8294 12.2421L7.29235 8.70502C7.10513 8.51814 6.99991 8.26411 7 7.99903C6.99991 7.73516 7.10522 7.48104 7.29227 7.29417C7.47949 7.10712 7.7336 7.00112 7.99842 7.00112C8.26324 7.00112 8.51727 7.10703 8.70467 7.29408L12.2411 10.8305L15.7792 7.29236C15.9661 7.10513 16.2201 6.99991 16.4852 7C16.7491 6.99991 17.0032 7.10522 17.1901 7.29227C17.3771 7.47949 17.4831 7.73361 17.4831 7.99843C17.4831 8.26325 17.3772 8.51728 17.1902 8.70467L13.6527 12.2421L17.1909 15.7803C17.3782 15.9672 17.4834 16.2212 17.4833 16.4863C17.4834 16.7502 17.3781 17.0043 17.191 17.1911C17.0038 17.3782 16.7497 17.4842 16.4849 17.4842Z" fill="#4B636F"/>
</svg>
