<svg width="24" height="24" viewBox="0 0 24 24" fill="none" xmlns="http://www.w3.org/2000/svg">
<path d="M7.99857 9.01202C7.73367 9.01202 7.47967 9.11802 7.29237 9.30502C7.10517 9.49202 6.99997 9.74602 6.99997 10.01C6.99997 10.275 7.10517 10.529 7.29237 10.716L11.288 14.708C11.475 14.895 11.729 15 11.994 15C12.259 15 12.513 14.895 12.7 14.708L16.695 10.716C16.79 10.624 16.867 10.514 16.919 10.392C16.971 10.27 16.999 10.139 17 10.007C17.001 9.87403 16.976 9.74302 16.926 9.62002C16.875 9.49702 16.801 9.38604 16.707 9.29204C16.614 9.19904 16.502 9.12403 16.379 9.07403C16.257 9.02403 16.125 8.99903 15.993 9.00003L11.994 10.007L7.99857 9.01202Z" fill="#4B636F"/>
</svg>
