<svg width="24" height="24" viewBox="0 0 24 24" fill="none" xmlns="http://www.w3.org/2000/svg">
<path fill-rule="evenodd" clip-rule="evenodd" d="M7.2924 9.30468C7.4797 9.11758 7.7337 9.01248 7.9986 9.01248C8.2634 9.01248 8.5174 9.11758 8.7047 9.30468L11.994 12.5911L15.283 9.30468C15.375 9.20936 15.485 9.13333 15.607 9.08102C15.729 9.02872 15.86 9.00119 15.993 9.00004C16.125 8.99889 16.257 9.02414 16.379 9.07432C16.502 9.1245 16.614 9.1986 16.707 9.2923C16.801 9.38601 16.875 9.49744 16.926 9.62009C16.976 9.74274 17.001 9.87415 17 10.0067C16.999 10.1392 16.971 10.2701 16.919 10.3919C16.867 10.5136 16.79 10.6238 16.695 10.7158L12.7 14.7078C12.513 14.8949 12.259 15 11.994 15C11.729 15 11.475 14.8949 11.288 14.7078L7.2924 10.7158C7.1052 10.5287 7 10.2749 7 10.0103C7 9.74562 7.1052 9.49183 7.2924 9.30468Z" fill="#4B636F"/>
</svg>
