<svg width="24" height="24" viewBox="0 0 24 24" fill="none" xmlns="http://www.w3.org/2000/svg">
<path fill-rule="evenodd" clip-rule="evenodd" d="M14.6006 1.71436C14.314 1.71396 14.0392 1.82779 13.8368 2.03064L12.372 3.49721C12.1676 3.70064 12.106 4.00722 12.216 4.27379C12.326 4.54035 12.5859 4.71428 12.8743 4.71436H16.3294C16.6169 4.71242 16.8751 4.53804 16.9843 4.27208C17.0935 4.00612 17.0323 3.70061 16.8291 3.49721L15.3643 2.03064C15.1619 1.82779 14.8871 1.71396 14.6006 1.71436ZM5.71027 1.71436C5.45912 1.71446 5.23272 1.86574 5.13651 2.09773C5.0403 2.32972 5.09319 2.59682 5.27056 2.77464L6.93684 4.43921C7.30439 4.80365 7.89701 4.80365 8.26456 4.43921L9.93256 2.77293C10.1101 2.59589 10.1635 2.32929 10.0678 2.09753C9.9721 1.86577 9.74616 1.71452 9.49542 1.71436H5.71027ZM2.71022 7.20535C2.89547 6.89161 3.23666 6.7034 3.60085 6.71407H19.6011C19.9653 6.7034 20.3065 6.89161 20.4918 7.20535C20.677 7.5191 20.677 7.90875 20.4918 8.2225C20.3065 8.53624 19.9653 8.72445 19.6011 8.71378L13.6011 16.4281V20.7138C13.6011 21.2662 13.1533 21.7141 12.6009 21.7141H10.6011C10.0487 21.7141 9.60085 21.2662 9.60085 20.7138V16.4281L3.60085 8.71378C3.23666 8.72445 2.89547 8.53624 2.71022 8.2225C2.52498 7.90875 2.52498 7.5191 2.71022 7.20535Z" fill="#4B636F"/>
</svg>
