<svg width="24" height="24" viewBox="0 0 24 24" fill="none" xmlns="http://www.w3.org/2000/svg">
<path fill-rule="evenodd" clip-rule="evenodd" d="M16.033 8.48017C15.9168 8.71805 15.7108 8.90012 15.4604 8.98636C15.21 9.07257 14.9356 9.05589 14.6976 8.93997L11.7807 7.51877L13.9288 13.7574C14.1086 14.2796 13.831 14.8487 13.3088 15.0285C12.7866 15.2083 12.2176 14.9307 12.0378 14.4085L9.89369 8.18172L8.4779 11.0816C8.42184 11.2017 8.3424 11.3095 8.24417 11.3986C8.14603 11.4877 8.03104 11.5564 7.90604 11.6007C7.78103 11.6449 7.64838 11.6639 7.51603 11.6564C7.38359 11.649 7.25404 11.6152 7.13485 11.5571C7.01574 11.499 6.9093 11.4178 6.82191 11.3182C6.73451 11.2186 6.66781 11.1026 6.62571 10.9769C6.5837 10.8512 6.56706 10.7185 6.57697 10.5863C6.58678 10.4541 6.62288 10.3252 6.68311 10.2071L9.16099 5.13193C9.27717 4.89404 9.48312 4.71197 9.73349 4.62576C9.98396 4.53952 10.2583 4.5562 10.4963 4.67213L15.5735 7.1459C15.8115 7.26191 15.9936 7.46762 16.0797 7.71783C16.1659 7.96806 16.149 8.24227 16.033 8.48017ZM4 17C3.44772 17 3 17.4477 3 18V20C3 20.5523 3.44772 21 4 21H20C20.5523 21 21 20.5523 21 20V18C21 17.4477 20.5523 17 20 17H4Z" fill="#4B636F"/>
</svg>
