<svg width="24" height="24" viewBox="0 0 24 24" fill="none" xmlns="http://www.w3.org/2000/svg">
<path fill-rule="evenodd" clip-rule="evenodd" d="M10.2638 2.15035C10.8284 2.05145 11.4086 2 12 2C14.5239 2 16.8295 2.93505 18.5891 4.47762C18.8639 4.71854 19.1255 4.9743 19.3724 5.24363C20.9203 6.93177 21.896 9.15316 21.9922 11.6005C21.9974 11.7331 22 11.8662 22 12C22 12.0739 21.9992 12.1477 21.9976 12.2212C21.9446 14.6616 21.0175 16.8865 19.5168 18.5955C19.2775 18.868 19.0236 19.1274 18.7564 19.3724C17.0682 20.9203 14.8468 21.896 12.3995 21.9922C12.2669 21.9974 12.1338 22 12 22C11.4086 22 10.8284 21.9485 10.2638 21.8496C9.7198 21.7544 9.35605 21.2361 9.45135 20.6921C9.54665 20.1481 10.0649 19.7844 10.6089 19.8796C11.06 19.9587 11.5248 20 12 20C12.0594 20 12.1186 19.9994 12.1777 19.9981C14.183 19.9544 16.0064 19.1728 17.3874 17.9142C17.5652 17.7521 17.7356 17.5821 17.8982 17.4048C19.136 16.0547 19.9164 14.2784 19.9937 12.3214C19.9979 12.2148 20 12.1077 20 12C20 11.9406 19.9994 11.8814 19.9981 11.8223C19.9544 9.81934 19.1746 7.99778 17.9185 6.61739C17.7551 6.43787 17.5837 6.26581 17.4048 6.10177C16.0313 4.84252 14.2167 4.05672 12.2194 4.00294C12.1465 4.00099 12.0734 4 12 4C11.5248 4 11.06 4.04133 10.6089 4.12035C10.0649 4.21565 9.54665 3.8519 9.45135 3.3079C9.35605 2.7639 9.7198 2.24565 10.2638 2.15035ZM7.6561 4.05267C7.97327 4.5048 7.86386 5.12844 7.41172 5.44561C6.64774 5.98154 5.98154 6.64774 5.44561 7.41172C5.12844 7.86386 4.5048 7.97327 4.05267 7.6561C3.60054 7.33893 3.49113 6.71529 3.80829 6.26316C4.47754 5.30913 5.30913 4.47754 6.26316 3.80829C6.71529 3.49113 7.33893 3.60054 7.6561 4.05267ZM3.3079 9.45135C3.8519 9.54665 4.21565 10.0649 4.12035 10.6089C4.04133 11.06 4 11.5248 4 12C4 12.4752 4.04133 12.94 4.12035 13.3911C4.21565 13.9351 3.8519 14.4534 3.3079 14.5486C2.7639 14.6439 2.24565 14.2802 2.15035 13.7362C2.05145 13.1716 2 12.5914 2 12C2 11.4086 2.05145 10.8284 2.15035 10.2638C2.24565 9.7198 2.7639 9.35605 3.3079 9.45135ZM4.05267 16.3439C4.5048 16.0267 5.12844 16.1361 5.44561 16.5883C5.98154 17.3523 6.64774 18.0185 7.41172 18.5544C7.86386 18.8716 7.97327 19.4952 7.6561 19.9473C7.33893 20.3995 6.71529 20.5089 6.26316 20.1917C5.30913 19.5225 4.47754 18.6909 3.80829 17.7368C3.49113 17.2847 3.60054 16.6611 4.05267 16.3439ZM13 7C13 6.44772 12.5523 6 12 6C11.4477 6 11 6.44772 11 7V12C11 12.3344 11.1671 12.6466 11.4453 12.8321L14.4453 14.8321C14.9048 15.1384 15.5257 15.0142 15.8321 14.5547C16.1384 14.0952 16.0142 13.4743 15.5547 13.1679L13.4453 11.7617C13.1671 11.5762 13 11.264 13 10.9296V7Z" fill="#4B636F"/>
</svg>
