<svg width="24" height="24" viewBox="0 0 24 24" fill="none" xmlns="http://www.w3.org/2000/svg">
<path d="M12 3C11.8798 3.00002 11.7608 3.02488 11.6498 3.07316C11.5389 3.12144 11.4382 3.19216 11.3537 3.28125L2.18466 11.6188C2.12739 11.6629 2.08085 11.7203 2.04878 11.7865C2.01671 11.8527 2 11.9258 2 12C2 12.1256 2.04789 12.2461 2.13313 12.3349C2.21838 12.4238 2.33399 12.4737 2.45455 12.4737H4.72727V20.0526C4.72727 20.5756 5.13455 21 5.63636 21H9.27273C9.77455 21 10.1818 20.5756 10.1818 20.0526V14.3684H13.8182V20.0526C13.8182 20.5756 14.2255 21 14.7273 21H18.3636C18.8655 21 19.2727 20.5756 19.2727 20.0526V12.4737H21.5455C21.666 12.4737 21.7816 12.4238 21.8669 12.3349C21.9521 12.2461 22 12.1256 22 12C22 11.9258 21.9833 11.8527 21.9512 11.7865C21.9191 11.7203 21.8726 11.6629 21.8153 11.6188L12.6516 3.2868C12.6499 3.28494 12.6481 3.28309 12.6463 3.28125C12.5618 3.19216 12.4611 3.12144 12.3502 3.07316C12.2392 3.02488 12.1202 3.00002 12 3Z" fill="#4B636F"/>
</svg>
