<svg width="24" height="24" viewBox="0 0 24 24" fill="none" xmlns="http://www.w3.org/2000/svg">
<g clip-path="url(#clip0_7389:8105)">
<path d="M21.8 19.3L18.8 6.7C18.7 6.2 18.1 5.8 17.6 6L16 6.4V5C16 4.4 15.6 4 15 4H13C12.4 4 12 4.4 12 5V8C12 7.4 11.6 7 11 7H8C7.4 7 7 7.4 7 8V4C7 3.4 6.6 3 6 3H3C2.4 3 2 3.4 2 4V20C2 20.6 2.4 21 3 21H6C6.6 21 7 20.6 7 20C7 20.6 7.4 21 8 21H11C11.6 21 12 20.6 12 20C12 20.6 12.4 21 13 21H15C15.6 21 16 20.6 16 20V11.7L18 20.2C18.1 20.7 18.7 21.1 19.2 20.9L21 20.5C21.6 20.4 21.9 19.9 21.8 19.3ZM5.5 19H3.5C3.2 19 3 18.8 3 18.5C3 18.2 3.2 18 3.5 18H5.5C5.8 18 6 18.2 6 18.5C6 18.8 5.8 19 5.5 19ZM5.5 17H3.5C3.2 17 3 16.8 3 16.5C3 16.2 3.2 16 3.5 16H5.5C5.8 16 6 16.2 6 16.5C6 16.8 5.8 17 5.5 17ZM5.5 6H3.5C3.2 6 3 5.8 3 5.5C3 5.2 3.2 5 3.5 5H5.5C5.8 5 6 5.2 6 5.5C6 5.8 5.8 6 5.5 6ZM10.3 19H8.8C8.5 19 8.3 18.8 8.3 18.5C8.3 18.2 8.5 18 8.8 18H10.3C10.6 18 10.8 18.2 10.8 18.5C10.8 18.8 10.5 19 10.3 19ZM10.3 17H8.8C8.5 17 8.3 16.8 8.3 16.5C8.3 16.2 8.5 16 8.8 16H10.3C10.6 16 10.8 16.2 10.8 16.5C10.8 16.8 10.5 17 10.3 17ZM10.3 10H8.8C8.5 10 8.3 9.8 8.3 9.5C8.3 9.2 8.5 9 8.8 9H10.3C10.6 9 10.8 9.2 10.8 9.5C10.8 9.8 10.5 10 10.3 10ZM14.7 13.3C14.7 13.7 14.4 14 14 14C13.6 14 13.3 13.7 13.3 13.3V6.7C13.3 6.3 13.6 6 14 6C14.4 6 14.7 6.3 14.7 6.7V13.3ZM19.3 17.5C19 17.6 18.6 17.4 18.5 17L17 10.5C16.9 10.2 17.1 9.8 17.5 9.7C17.8 9.6 18.2 9.8 18.3 10.2L19.9 16.8C19.9 17.1 19.7 17.4 19.3 17.5Z" fill="#4B636F"/>
</g>
<defs>
<clipPath id="clip0_7389:8105">
<rect width="19.8" height="18" fill="white" transform="translate(2 3)"/>
</clipPath>
</defs>
</svg>
