<svg width="24" height="24" viewBox="0 0 24 24" fill="none" xmlns="http://www.w3.org/2000/svg">
<path fill-rule="evenodd" clip-rule="evenodd" d="M16.3827 4.64419C16.4737 3.74513 17.2244 3.05566 18.1799 3.05566C19.198 3.05566 19.9999 3.83338 19.9999 4.8207C19.9999 5.75561 19.2776 6.48369 18.3392 6.56367C18.9193 8.28733 18.5212 10.9762 15.996 13.4252C15.2141 14.2241 14.9474 15.3883 14.718 16.3897C14.5419 17.1583 14.3877 17.831 14.0395 18.1688C13.2376 18.9465 10.5446 18.7948 7.1236 15.4771C3.70263 12.1594 3.54623 9.54767 4.34815 8.76996C4.69882 8.42987 5.45459 8.29282 6.29756 8.13995C7.38233 7.94324 8.61148 7.72035 9.30757 7.00492C11.9181 4.52836 14.6452 4.08986 16.3827 4.64419ZM18.908 4.82075C18.908 4.39604 18.6179 4.11474 18.18 4.11474C17.961 4.11474 17.8245 4.19472 17.6795 4.33537C17.5345 4.47602 17.452 4.6084 17.452 4.82075C17.452 5.24547 17.7421 5.52677 18.18 5.52677C18.6179 5.52677 18.908 5.24547 18.908 4.82075ZM14.7447 5.76922C15.1798 5.73337 15.6775 5.78577 16.2235 5.94573C14.1134 5.80508 11.4148 9.04832 10.4678 10.248C9.73982 11.0947 8.56253 12.0268 7.03261 12.1675C5.7956 11.4615 5.94063 10.5348 5.94063 10.5348C5.94063 10.5348 7.61842 10.7472 9.87632 9.12278C10.5217 8.64835 11.0668 8.1377 11.5756 7.66113C12.6047 6.69714 13.485 5.87257 14.7447 5.76922ZM6.89627 18.4556C6.89627 17.9619 7.19201 17.5234 7.55601 17.2421C8.36054 17.9588 9.15541 18.3851 9.78705 18.7238C9.84082 18.7527 9.89341 18.7809 9.94472 18.8086C9.79969 19.5146 9.14848 20 8.42049 20C7.61857 20 6.89627 19.3022 6.89627 18.4556Z" fill="#4B636F"/>
</svg>
