<svg width="24" height="24" viewBox="0 0 24 24" fill="none" xmlns="http://www.w3.org/2000/svg">
<path fill-rule="evenodd" clip-rule="evenodd" d="M15 5C15 3.89543 14.1046 3 13 3H7C5.89543 3 5 3.89543 5 5V19C5 20.1046 5.89543 21 7 21H18C19.1046 21 20 20.1046 20 19V10C20 8.89543 19.1046 8 18 8H16C15.5 8 15 7.5 15 7V5Z" fill="#4B636F"/>
<path d="M16.0002 5C16.0002 4.44772 16 4 16 4C17.0002 4 19 6 19 7C19 7 18.5523 7 18.0001 7H16.5003C16.25 7 16 6.75 16 6.5L16.0002 5Z" fill="#4B636F"/>
<path d="M11.2922 17.7056C11.105 17.5183 11.0002 17.2638 11 16.999V14.9962H8.99768C8.73315 14.9965 8.47913 14.8912 8.29175 14.7037C8.1051 14.5172 7.99988 14.2631 8 13.9987C8.00012 13.734 8.10486 13.4794 8.29211 13.2921C8.47937 13.1049 8.73389 13.0001 8.99866 12.9999H11V10.9977C10.9998 10.7332 11.105 10.4791 11.2925 10.2917C11.479 10.1051 11.7332 9.99988 11.9976 10C12.2622 10.0001 12.5168 10.1049 12.7041 10.2921C12.8914 10.4794 12.9961 10.7339 12.9963 10.9987V12.9999H15C15.2645 12.9996 15.5186 13.1049 15.7059 13.2924C15.8926 13.4789 15.9978 13.733 15.9977 13.9974C15.9976 14.2621 15.8928 14.5167 15.7056 14.704C15.5183 14.8912 15.2638 14.996 14.999 14.9962H12.9963V17C12.9966 17.2645 12.8914 17.5186 12.7039 17.7059C12.5173 17.8926 12.2632 17.9978 11.9988 17.9977C11.7341 17.9976 11.4795 17.8928 11.2922 17.7056Z" fill="white"/>
</svg>
