<svg width="24" height="24" viewBox="0 0 24 24" fill="none" xmlns="http://www.w3.org/2000/svg">
<path fill-rule="evenodd" clip-rule="evenodd" d="M14.795 16.7678C15.6739 16.5354 16.485 16.1363 17.1926 15.6064L18.8623 17.2762C18.7731 17.6099 18.8593 17.9807 19.1212 18.2425L21.2425 20.3639C21.633 20.7544 22.2662 20.7544 22.6567 20.3639L23.3638 19.6568C23.7543 19.2662 23.7543 18.6331 23.3638 18.2425L21.2425 16.1212C20.9808 15.8596 20.6103 15.7732 20.2767 15.8622L18.6068 14.1922C19.482 13.0236 20.0004 11.5724 20.0004 10C20.0004 6.13401 16.8664 3 13.0004 3C12.1717 3 11.3765 3.14403 10.6387 3.40843L11.2337 5.32108C11.783 5.11356 12.3785 5 13.0004 5C15.3971 5 17.3999 6.6862 17.8872 8.93695C17.9674 9.23917 18.0067 9.56096 17.9992 9.88783C18 9.92512 18.0004 9.96251 18.0004 10C18.0004 12.3479 16.3821 14.3179 14.2 14.8552L14.795 16.7678Z" fill="#4B636F"/>
<path d="M7.03816 4.72999C7.34091 3.75667 8.65909 3.75667 8.96185 4.72998L10.1571 8.57258C10.2925 9.00786 10.6808 9.30256 11.1189 9.30256H14.9867C15.9664 9.30256 16.3738 10.6122 15.5812 11.2137L12.452 13.5885C12.0975 13.8576 11.9493 14.3344 12.0847 14.7696L13.2799 18.6122C13.5826 19.5856 12.5162 20.395 11.7235 19.7935L8.59446 17.4186C8.23999 17.1496 7.76002 17.1495 7.40555 17.4186L4.27641 19.7935C3.48382 20.395 2.41738 19.5856 2.72013 18.6122L3.91536 14.7696C4.05074 14.3344 3.90242 13.8576 3.54797 13.5885L0.41883 11.2137C-0.373773 10.6122 0.0335683 9.30256 1.01327 9.30256H4.8811C5.31924 9.30256 5.70755 9.00786 5.84294 8.57258L7.03816 4.72999Z" fill="#4B636F"/>
</svg>
