<svg width="24" height="24" viewBox="0 0 24 24" fill="none" xmlns="http://www.w3.org/2000/svg">
<path fill-rule="evenodd" clip-rule="evenodd" d="M17.7971 7.298C18.9601 7.298 19.4441 8.853 18.5031 9.567L14.7871 12.387C14.3661 12.707 14.1901 13.273 14.3511 13.79L15.7701 18.353C16.1301 19.509 14.8631 20.47 13.9221 19.756L10.2061 16.936C9.78513 16.617 9.21513 16.616 8.79413 16.936L5.07813 19.756C4.13713 20.47 2.87013 19.509 3.23013 18.353L4.64913 13.79C4.81013 13.273 4.63413 12.707 4.21313 12.387L0.497134 9.567C-0.443866 8.853 0.040134 7.298 1.20313 7.298H5.79613C6.31713 7.298 6.77813 6.948 6.93813 6.431L8.35913 1.867C8.71813 0.711 10.2831 0.711 10.6431 1.867L12.0621 6.43C12.1211 6.619 12.2301 6.775 12.3581 6.911L8.80713 11.959L7.69813 11.2C7.24213 10.888 6.61913 11.005 6.30813 11.461C5.99613 11.917 6.11313 12.539 6.56913 12.851L8.49113 14.166C8.66313 14.284 8.86013 14.341 9.05413 14.341C9.36813 14.341 9.67713 14.193 9.87113 13.918L14.5301 7.298H17.7971ZM21.1319 17.359C21.4749 17.394 21.7909 17.607 21.9429 17.944L23.1719 20.68C23.3979 21.184 23.1739 21.775 22.6699 22.002L21.7579 22.412C21.2539 22.638 20.6629 22.414 20.4359 21.91L19.2059 19.174C19.0539 18.837 19.1049 18.459 19.3069 18.179L18.3389 16.025C17.8029 16.179 17.2439 16.248 16.6799 16.27L16.0549 14.26C18.1999 14.413 20.2819 13.184 21.0839 11.07C22.0639 8.48799 20.7659 5.60099 18.1839 4.62099C16.4709 3.96999 14.6359 4.33899 13.2999 5.40399L12.6719 3.38499C14.4689 2.25099 16.7549 1.93899 18.8939 2.75099C22.5089 4.12299 24.3259 8.16599 22.9539 11.78C22.3959 13.25 21.3959 14.423 20.1629 15.205L21.1319 17.359Z" fill="#4B636F"/>
</svg>
