<svg width="24" height="24" viewBox="0 0 24 24" fill="none" xmlns="http://www.w3.org/2000/svg">
<path fill-rule="evenodd" clip-rule="evenodd" d="M15.6063 14.1922C16.4816 13.0236 17 11.5724 17 10C17 6.13401 13.866 3 10 3C6.13401 3 3 6.13401 3 10C3 13.866 6.13401 17 10 17C11.5723 17 13.0235 16.4816 14.1921 15.6064L15.8618 17.2762C15.7726 17.6099 15.8589 17.9807 16.1207 18.2425L18.242 20.3639C18.6326 20.7544 19.2657 20.7544 19.6563 20.3639L20.3634 19.6568C20.7539 19.2662 20.7539 18.6331 20.3634 18.2425L18.242 16.1212C17.9804 15.8596 17.6098 15.7732 17.2763 15.8622L15.6063 14.1922ZM10 5C11.4668 5 12.7861 5.63161 13.7007 6.63768C13.0501 6.23159 12.2994 6 11.5 6C9.01472 6 7 8.23858 7 11C7 12.516 7.60723 13.8744 8.56618 14.7914C6.50353 14.175 5 12.2631 5 10C5 7.23858 7.23858 5 10 5Z" fill="#4B636F"/>
</svg>
