<svg width="24" height="24" viewBox="0 0 24 24" fill="none" xmlns="http://www.w3.org/2000/svg">
<path fill-rule="evenodd" clip-rule="evenodd" d="M20.0002 10C20.0002 11.5724 19.4818 13.0236 18.6065 14.1922L20.2765 15.8622C20.61 15.7732 20.9806 15.8596 21.2422 16.1212L23.3636 18.2425C23.7541 18.6331 23.7541 19.2662 23.3636 19.6568L22.6564 20.3639C22.2659 20.7544 21.6328 20.7544 21.2422 20.3639L19.1209 18.2425C18.8591 17.9807 18.7728 17.6099 18.862 17.2762L17.1923 15.6064C16.2752 16.2933 15.1841 16.7603 13.9969 16.9296C13.4502 17.0075 13.0002 16.5523 13.0002 16V16C13.0002 15.4477 13.4524 15.0104 13.9938 14.9012C16.2791 14.4404 18 12.4212 18 10C18 7.23858 15.7614 5 13 5C11.5437 5 10.2328 5.62259 9.31901 6.61612C9.10611 6.8476 8.81459 7 8.50009 7H8.25598C7.52138 7 7.05217 6.23552 7.50803 5.65948C8.79012 4.03943 10.7738 3 13.0002 3C16.8662 3 20.0002 6.13401 20.0002 10ZM9 12C8.44772 12 8 11.5523 8 11V9C8 8.44771 8.44771 8 9 8C9.55228 8 10 8.44771 10 9C10.5523 9 11 9.44771 11 10C11 10.5523 10.5523 11 10 11C10 11.5523 9.55229 12 9 12ZM7 9H2C1.44772 9 1 9.44771 1 10C1 10.5523 1.44772 11 2 11H7V9ZM5 16C4.44772 16 4 15.5523 4 15L4 13C4 12.4477 4.44772 12 5 12C5.55228 12 6 12.4477 6 13H10C10.5523 13 11 13.4477 11 14C11 14.5523 10.5523 15 10 15H6C6 15.5523 5.55228 16 5 16ZM3 13H2C1.44772 13 1 13.4477 1 14C1 14.5523 1.44772 15 2 15H3L3 13ZM7 19C7 19.5523 7.44772 20 8 20C8.55229 20 9 19.5523 9 19H10C10.5523 19 11 18.5523 11 18C11 17.4477 10.5523 17 10 17H9C9 16.4477 8.55228 16 8 16C7.44772 16 7 16.4477 7 17V19ZM2 19C1.44772 19 1 18.5523 1 18C1 17.4477 1.44772 17 2 17H6V19H2Z" fill="#4B636F"/>
</svg>
