<svg width="24" height="24" viewBox="0 0 24 24" fill="none" xmlns="http://www.w3.org/2000/svg">
<path fill-rule="evenodd" clip-rule="evenodd" d="M21 7C21 9.20914 19.2091 11 17 11C15.675 11 14.5005 10.3558 13.7726 9.36343L9.96426 11.463C9.98783 11.6386 10 11.8179 10 12C10 12.3993 9.9415 12.7849 9.8326 13.1488L13.5558 14.9647C14.2523 13.7886 15.5341 13 17 13C19.2091 13 21 14.7909 21 17C21 19.2091 19.2091 21 17 21C14.7909 21 13 19.2091 13 17C13 16.973 13.0003 16.9461 13.0008 16.9192L8.79061 14.8657C8.06994 15.5676 7.08546 16 6 16C3.79086 16 2 14.2091 2 12C2 9.79086 3.79086 8 6 8C7.30877 8 8.47074 8.62856 9.20049 9.60026L13.0296 7.48922C13.0101 7.32888 13 7.16562 13 7C13 4.79086 14.7909 3 17 3C19.2091 3 21 4.79086 21 7Z" fill="#4B636F"/>
</svg>
