<svg width="24" height="24" viewBox="0 0 24 24" fill="none" xmlns="http://www.w3.org/2000/svg">
<path fill-rule="evenodd" clip-rule="evenodd" d="M8.00051 7.47002C8.00051 5.00176 9.79046 3 11.9996 3C14.2087 3 15.9987 5.00176 15.9987 7.47002C15.9987 9.93828 14.208 11.94 11.9996 11.94C9.79121 11.94 8.00051 9.93828 8.00051 7.47002ZM8.2259 13.0388C8.30702 13.0128 8.39112 12.9997 8.47561 13C8.73433 13.0036 8.97912 13.1297 9.1475 13.3461C9.8452 14.2931 10.8933 14.843 12.0004 14.843C13.1075 14.843 14.1556 14.2931 14.8533 13.3461C15.0788 13.0529 15.4394 12.9323 15.7749 13.038C18.4054 13.8732 20.9985 15.4981 20.9985 17.9211V19.7683C21.0292 20.4117 20.5828 20.9618 19.9989 21H4.00112C3.41696 20.9618 2.9704 20.4112 3.00153 19.7675V17.9211C3.00153 15.499 5.59385 13.8707 8.2259 13.0388Z" fill="#4B636F"/>
</svg>
